<svg width="367.09999999999997px" height="120.8px" xmlns="http://www.w3.org/2000/svg" viewBox="66.45000000000002 14.600000000000001 367.09999999999997 120.8" style="background: rgba(0, 0, 0, 0);" preserveAspectRatio="xMidYMid"><defs><filter id="editing-extrusion" x="-100%" y="-100%" width="300%" height="300%"><feFlood result="color1" flood-color="#444"></feFlood><feConvolveMatrix order="8,8" divisor="1" kernelMatrix="1 0 0 0 0 0 0 0 0 1 0 0 0 0 0 0 0 0 1 0 0 0 0 0 0 0 0 1 0 0 0 0 0 0 0 0 1 0 0 0 0 0 0 0 0 1 0 0 0 0 0 0 0 0 1 0 0 0 0 0 0 0 0 1" in="SourceAlpha" result="extrude"></feConvolveMatrix><feComposite in="color1" in2="extrude" result="comp-extrude" operator="in"></feComposite><feOffset dx="4" dy="4" in="comp-extrude" result="offset-extrude"></feOffset><feMerge><feMergeNode in="offset-extrude"></feMergeNode><feMergeNode in="SourceGraphic"></feMergeNode></feMerge></filter></defs><g filter="url(#editing-extrusion)"><g transform="translate(123.53502348065376, 104.76000022888184)"><path d="M0.45-0.32L0.45-0.32L8.51-42.24L8.51-42.24Q16.06-42.88 20.93-42.88L20.93-42.88L20.93-42.88Q25.79-42.88 28.93-42.46L28.93-42.46L28.93-42.46Q32.06-42.05 34.18-40.96L34.18-40.96L34.18-40.96Q38.40-38.91 38.40-33.28L38.40-33.28L38.40-33.28Q38.40-30.02 35.58-27.26L35.58-27.26L35.58-27.26Q32.96-24.77 30.08-24.19L30.08-24.19L30.08-24.19Q33.15-23.68 35.33-21.38L35.33-21.38L35.33-21.38Q37.63-18.94 37.63-15.17L37.63-15.17L37.63-15.17Q37.63-7.87 32.19-3.62L32.19-3.62L32.19-3.62Q26.75 0.64 16.06 0.64L16.06 0.64L16.06 0.64Q8.70 0.64 0.45-0.32ZM17.86-20.61L14.66-4.03L14.66-4.03Q15.23-3.97 15.36-3.97L15.36-3.97L15.94-3.97L15.94-3.97Q21.18-3.97 23.42-7.42L23.42-7.42L23.42-7.42Q25.09-10.11 25.09-15.04L25.09-15.04L25.09-15.04Q25.09-17.66 23.39-19.07L23.39-19.07L23.39-19.07Q21.70-20.48 17.86-20.61L17.86-20.61ZM27.58-33.22L27.58-33.22L27.58-33.22Q27.58-38.53 22.46-38.53L22.46-38.53L21.89-38.53L21.89-38.53Q21.63-38.53 21.25-38.46L21.25-38.46L18.69-24.96L19.33-24.96L19.33-24.96Q27.58-25.15 27.58-33.22ZM67.78-10.82L67.78-10.82L67.78-10.82Q69.38-9.73 69.38-7.33L69.38-7.33L69.38-7.33Q69.38-4.93 68.16-3.39L68.16-3.39L68.16-3.39Q66.94-1.86 64.96-0.83L64.96-0.83L64.96-0.83Q60.86 1.28 56.45 1.28L56.45 1.28L56.45 1.28Q52.03 1.28 49.44 0.32L49.44 0.32L49.44 0.32Q46.85-0.64 45.12-2.43L45.12-2.43L45.12-2.43Q41.73-5.82 41.73-12.03L41.73-12.03L41.73-12.03Q41.73-21.70 46.98-27.58L46.98-27.58L46.98-27.58Q52.61-33.92 62.40-33.92L62.40-33.92L62.40-33.92Q68.48-33.92 71.49-31.36L71.49-31.36L71.49-31.36Q73.73-29.44 73.73-26.30L73.73-26.30L73.73-26.30Q73.73-15.04 54.27-15.04L54.27-15.04L54.27-15.04Q54.02-13.38 54.02-11.97L54.02-11.97L54.02-11.97Q54.02-9.02 55.33-7.90L55.33-7.90L55.33-7.90Q56.64-6.78 59.07-6.78L59.07-6.78L59.07-6.78Q61.50-6.78 64.10-7.90L64.10-7.90L64.10-7.90Q66.69-9.02 67.78-10.82ZM54.72-17.79L54.72-17.79L54.72-17.79Q59.26-17.79 61.89-20.61L61.89-20.61L61.89-20.61Q64.51-23.30 64.51-27.58L64.51-27.58L64.51-27.58Q64.51-29.06 63.97-29.86L63.97-29.86L63.97-29.86Q63.42-30.66 62.34-30.66L62.34-30.66L62.34-30.66Q61.25-30.66 60.32-30.24L60.32-30.24L60.32-30.24Q59.39-29.82 58.43-28.42L58.43-28.42L58.43-28.42Q56.06-25.22 54.72-17.79ZM95.04-22.46L95.04-22.46L95.04-22.46Q95.94-24.83 95.94-26.88L95.94-26.88L95.94-26.88Q95.94-30.66 92.86-30.66L92.86-30.66L92.86-30.66Q91.26-30.66 89.95-29.22L89.95-29.22L89.95-29.22Q88.64-27.78 88.64-25.98L88.64-25.98L88.64-25.98Q88.64-24.70 89.66-23.68L89.66-23.68L89.66-23.68Q91.14-22.27 94.91-19.97L94.91-19.97L94.91-19.97Q98.69-17.66 100.13-15.78L100.13-15.78L100.13-15.78Q101.57-13.89 101.57-11.30L101.57-11.30L101.57-11.30Q101.57-8.70 100.32-6.34L100.32-6.34L100.32-6.34Q99.07-3.97 96.83-2.30L96.83-2.30L96.83-2.30Q92.03 1.28 84.35 1.28L84.35 1.28L84.35 1.28Q80.19 1.28 76.99-0.90L76.99-0.90L76.99-0.90Q73.79-3.01 73.79-5.50L73.79-5.50L73.79-5.50Q73.79-8 75.62-9.47L75.62-9.47L75.62-9.47Q77.44-10.94 80.13-10.94L80.13-10.94L80.13-10.94Q82.82-10.94 84.48-9.92L84.48-9.92L84.48-9.92Q83.65-7.81 83.65-6.40L83.65-6.40L83.65-6.40Q83.65-2.18 87.23-2.18L87.23-2.18L87.23-2.18Q88.77-2.18 89.79-3.14L89.79-3.14L89.79-3.14Q90.82-4.10 90.82-5.76L90.82-5.76L90.82-5.76Q90.82-9.02 85.31-12.48L85.31-12.48L85.31-12.48Q80.83-15.42 79.81-16.58L79.81-16.58L79.81-16.58Q78.08-18.62 78.08-21.18L78.08-21.18L78.08-21.18Q78.08-23.74 79.30-26.18L79.30-26.18L79.30-26.18Q80.51-28.61 82.75-30.34L82.75-30.34L82.75-30.34Q87.42-33.92 95.55-33.92L95.55-33.92L95.55-33.92Q99.71-33.92 102.18-32.26L102.18-32.26L102.18-32.26Q104.64-30.59 104.64-27.78L104.64-27.78L104.64-27.78Q104.64-24.96 102.94-23.36L102.94-23.36L102.94-23.36Q101.25-21.76 98.18-21.76L98.18-21.76L98.18-21.76Q96.06-21.76 95.04-22.46ZM108.03-6.40L108.03-6.40L108.03-6.40Q108.03-8.13 108.93-12.48L108.93-12.48L112.32-29.76L108.54-29.76L108.80-31.68L108.80-31.68Q116.48-33.98 123.90-39.62L123.90-39.62L126.98-39.62L125.44-32.64L130.43-32.64L129.86-29.76L124.93-29.76L121.66-12.48L121.66-12.48Q120.83-8.51 120.83-7.17L120.83-7.17L120.83-7.17Q120.83-4.10 123.52-3.46L123.52-3.46L123.52-3.46Q122.88-1.28 120.58 0L120.58 0L120.58 0Q118.27 1.28 115.01 1.28L115.01 1.28L115.01 1.28Q111.74 1.28 109.89-0.77L109.89-0.77L109.89-0.77Q108.03-2.82 108.03-6.40ZM135.23-31.17L135.23-31.17L135.23-31.17Q133.06-32.83 133.06-36.38L133.06-36.38L133.06-36.38Q133.06-39.94 135.39-41.79L135.39-41.79L135.39-41.79Q137.73-43.65 141.76-43.65L141.76-43.65L141.76-43.65Q144.32-43.65 150.40-42.75L150.40-42.75L154.75-42.11L154.75-42.11Q156.93-41.86 159.20-41.86L159.20-41.86L159.20-41.86Q161.47-41.86 163.01-42.82L163.01-42.82L163.01-42.82Q165.31-40.77 165.31-37.82L165.31-37.82L165.31-37.82Q165.31-34.88 162.69-32.77L162.69-32.77L162.69-32.77Q160-30.53 156.54-30.53L156.54-30.53L156.54-30.53Q154.88-30.53 152.19-30.98L152.19-30.98L152.19-30.98Q149.06-21.12 149.06-14.27L149.06-14.27L149.06-14.27Q149.06-7.42 152.51-3.84L152.51-3.84L152.51-3.84Q150.91-0.96 148.54 0.16L148.54 0.16L148.54 0.16Q146.18 1.28 142.62 1.28L142.62 1.28L142.62 1.28Q139.07 1.28 136.86-0.67L136.86-0.67L136.86-0.67Q134.66-2.62 134.66-6.66L134.66-6.66L134.66-6.66Q134.66-11.33 137.22-19.01L137.22-19.01L137.22-19.01Q139.78-26.62 143.62-32.45L143.62-32.45L143.62-32.45Q141.76-32.64 139.84-32.64L139.84-32.64L139.84-32.64Q135.87-32.64 135.23-31.17ZM182.91-17.98L182.91-17.98L182.91-17.98Q185.22-22.08 185.22-26.24L185.22-26.24L185.22-26.24Q185.22-28.99 183.23-28.99L183.23-28.99L183.23-28.99Q181.70-28.99 180.10-26.37L180.10-26.37L180.10-26.37Q178.43-23.74 177.92-20.35L177.92-20.35L174.59 0L161.34 1.28L167.87-32.64L178.43-33.92L177.28-27.46L177.28-27.46Q180.42-33.92 187.46-33.92L187.46-33.92L187.46-33.92Q191.17-33.92 193.18-32L193.18-32L193.18-32Q195.20-30.08 195.20-26.14L195.20-26.14L195.20-26.14Q195.20-22.21 192.61-19.71L192.61-19.71L192.61-19.71Q190.02-17.22 185.60-17.22L185.60-17.22L185.60-17.22Q183.68-17.22 182.91-17.98ZM211.58-3.52L211.58-3.52L211.58-3.52Q209.60 1.28 203.26 1.28L203.26 1.28L203.26 1.28Q200 1.28 197.95-0.96L197.95-0.96L197.95-0.96Q196.22-2.94 196.22-4.93L196.22-4.93L196.22-4.93Q196.22-10.11 198.59-20.22L198.59-20.22L200.96-32.64L213.95-33.92L210.05-13.70L210.05-13.70Q208.96-8.96 208.96-7.30L208.96-7.30L208.96-7.30Q208.96-3.65 211.58-3.52ZM202.11-41.54L202.11-41.54L202.11-41.54Q202.11-44.03 204.19-45.38L204.19-45.38L204.19-45.38Q206.27-46.72 209.28-46.72L209.28-46.72L209.28-46.72Q212.29-46.72 214.11-45.38L214.11-45.38L214.11-45.38Q215.94-44.03 215.94-41.54L215.94-41.54L215.94-41.54Q215.94-39.04 213.92-37.76L213.92-37.76L213.92-37.76Q211.90-36.48 208.90-36.48L208.90-36.48L208.90-36.48Q205.89-36.48 204-37.76L204-37.76L204-37.76Q202.11-39.04 202.11-41.54ZM246.85-4.38L246.85-4.38L246.85-4.38Q244.16-1.66 240.48-0.19L240.48-0.19L240.48-0.19Q236.80 1.28 233.15 1.28L233.15 1.28L233.15 1.28Q229.50 1.28 228.22 0.64L228.22 0.64L226.24 11.52L213.25 12.80L222.08-32.64L232.51-33.73L231.68-29.31L231.68-29.31Q234.37-33.86 239.94-33.86L239.94-33.86L239.94-33.86Q246.21-33.86 249.54-29.82L249.54-29.82L249.54-29.82Q252.48-26.18 252.48-20.61L252.48-20.61L252.48-20.61Q252.48-15.04 251.01-11.07L251.01-11.07L251.01-11.07Q249.54-7.10 246.85-4.38ZM232.38-22.34L228.99-3.58L228.99-3.58Q230.34-2.43 232-2.43L232-2.43L232-2.43Q233.66-2.43 234.62-3.07L234.62-3.07L234.62-3.07Q235.58-3.71 236.29-4.99L236.29-4.99L236.29-4.99Q238.21-8.45 239.74-18.94L239.74-18.94L239.74-18.94Q240.19-22.02 240.19-25.02L240.19-25.02L240.19-25.02Q240.19-28.03 239.52-28.99L239.52-28.99L239.52-28.99Q238.85-29.95 237.57-29.95L237.57-29.95L237.57-29.95Q233.66-29.95 232.38-22.34L232.38-22.34Z" fill="#ccc"></path></g></g><style>text {
  font-size: 64px;
  font-family: Arial Black;
  dominant-baseline: central;
  text-anchor: middle;
}</style></svg>